# WaveFront *.obj file (generated by CINEMA 4D)

mtllib ./WarningGlyph.mtl

v 145.70379638671875 60.39921569824219 0
v -145.70379638671875 -60.30576324462891 0
v -60.35248947143555 -145.65707397460938 0
v 60.35248947143555 -145.65707397460938 0
v 145.70379638671875 -60.30576324462891 0
v 145.70379638671875 60.39921569824219 -15.77086544036865
v -145.70379638671875 -60.30576324462891 -15.77086544036865
v -60.35248947143555 -145.65707397460938 -15.77086544036865
v 60.35248947143555 -145.65707397460938 -15.77086544036865
v 145.70379638671875 -60.30576324462891 -15.77086544036865
v 60.35248947143555 145.75053405761719 0
v -60.35248947143555 145.75053405761719 0
v -145.70379638671875 60.39921569824219 0
v 60.35248947143555 145.75053405761719 -15.77086544036865
v -60.35248947143555 145.75053405761719 -15.77086544036865
v -145.70379638671875 60.39921569824219 -15.77086544036865
v -46.90146636962891 132.29949951171875 0
v -60.35248947143555 126.72969055175781 0
v 132.257080078125 -46.85905075073242 0
v -60.35248947143555 -126.64485931396484 0
v -60.35248947143555 -126.64485931396484 -15.77086544036865
v -46.91009140014648 -132.21467590332031 -15.77086544036865
v 132.257080078125 46.9525032043457 -15.77086544036865
v -60.35248947143555 126.72969055175781 -15.77086544036865
v 54.78268051147461 -132.21467590332031 0
v 132.257080078125 54.82509231567383 -0.00000000000001
v -54.78268051147461 -132.21467590332031 0.00000000000001
v 54.78268051147461 132.29949951171875 0.00000000000001
v 132.257080078125 -54.74026489257812 0.00000000000001
v -132.257080078125 -54.74026489257812 0
v -54.78268051147461 132.29949951171875 0
v 132.257080078125 54.82509231567383 -15.77086544036865
v 54.78268051147461 132.29949951171875 -15.77086544036865
v -54.78268051147461 132.29949951171875 -15.77086544036865
v -132.257080078125 54.82509231567383 0.00000000000001
v -54.78268051147461 -132.21467590332031 -15.77086544036865
v 54.78268051147461 -132.21467590332031 -15.77086544036865
v 132.257080078125 -54.74026489257812 -15.77086544036865
v -132.257080078125 54.82509231567383 -15.77086544036865
v -132.257080078125 -54.74026489257812 -15.77086544036865
v -54.78268051147461 132.29949951171875 0.00000000000001
v 54.78268051147461 132.29949951171875 0
v 54.78268051147461 -132.21467590332031 0.00000000000001
v 54.78268051147461 132.29949951171875 -15.77086544036865
v -54.78268051147461 132.29949951171875 -15.77086544036865
v -54.78268051147461 -132.21467590332031 -15.77086544036865
v -132.257080078125 -54.74026489257812 -0.00000000000001
v -46.90146636962891 132.29949951171875 0
v 184.77590942382812 76.595947265625 0
v -184.77590942382812 -76.47743225097656 0
v -76.53668975830078 -184.71664428710938 0
v 76.53668975830078 -184.71664428710938 0
v 184.77590942382812 -76.47743225097656 0
v 184.77590942382812 76.595947265625 -20
v -184.77590942382812 -76.47743225097656 -20
v -76.53668975830078 -184.71664428710938 -20
v 76.53668975830078 -184.71664428710938 -20
v 184.77590942382812 -76.47743225097656 -20
v 76.53668975830078 184.83515930175781 0
v -76.53668975830078 184.83515930175781 0
v -184.77590942382812 76.595947265625 0
v 76.53668975830078 184.83515930175781 -20
v -76.53668975830078 184.83515930175781 -20
v -184.77590942382812 76.595947265625 -20
v -59.47861862182617 167.777099609375 0
v -76.53668975830078 160.71368408203125 0
v 167.72331237792969 -59.42483139038086 0
v -76.53668975830078 -160.60609436035156 0
v -76.53668975830078 -160.60609436035156 -20
v -59.48955535888672 -167.66952514648438 -20
v 167.72331237792969 59.5433464050293 -20
v -76.53668975830078 160.71368408203125 -20
v 69.4732666015625 -167.66952514648438 0
v 167.72331237792969 69.52705383300781 -0.00000000000001
v -69.4732666015625 -167.66952514648438 0.00000000000001
v 69.4732666015625 167.777099609375 0.00000000000001
v 167.72331237792969 -69.41947937011719 0.00000000000001
v -167.72331237792969 -69.41947937011719 0
v -69.4732666015625 167.777099609375 0
v 167.72331237792969 69.52705383300781 -20
v 69.4732666015625 167.777099609375 -20
v -69.4732666015625 167.777099609375 -20
v -167.72331237792969 69.52705383300781 0.00000000000001
v -69.4732666015625 -167.66952514648438 -20
v 69.4732666015625 -167.66952514648438 -20
v 167.72331237792969 -69.41947937011719 -20
v -167.72331237792969 69.52705383300781 -20
v -167.72331237792969 -69.41947937011719 -20
v -69.4732666015625 167.777099609375 0.00000000000001
v 69.4732666015625 167.777099609375 0
v 69.4732666015625 -167.66952514648438 0.00000000000001
v 69.4732666015625 167.777099609375 -20
v -69.4732666015625 167.777099609375 -20
v -69.4732666015625 -167.66952514648438 -20
v -167.72331237792969 -69.41947937011719 -0.00000000000001
v -59.47861862182617 167.777099609375 0
# 96 vertices

vn 0.92387956380844 0.38268339633942 0
vn 0.38268345594406 0.9238795042038 0
vn -0.38268345594406 0.9238795042038 0
vn -0.92387956380844 0.38268339633942 0
vn -0.92387956380844 -0.38268342614174 0
vn -0.38268345594406 -0.9238795042038 0
vn 0.38268345594406 -0.9238795042038 0
vn 0.92387956380844 -0.38268342614174 0
vn -0 -0 1
vn -0 0 1
vn -0 -0 1
vn 0 0 0
vn 0 0 1
vn 0 0 1
vn 0 0 1
vn 0 -0 1
vn -0 0 1
vn -0 0 1
vn 0 0 1
vn -0 0 1
vn 0 0 1
vn -0 0 1
vn -0 -0 1
vn -0 0 1
vn 0 0 -1
vn -0.38268345594406 -0.9238795042038 0
vn -0.96753823757172 -0.25272470712662 0
vn -0.92387956380844 -0.38268339633942 0
vn 0 -1 0
vn 0.25272473692894 -0.96753823757172 0
vn 0.92387956380844 -0.38268339633942 0
vn 0.70710682868958 -0.70710676908493 0
vn 0.86285626888275 0.50544935464859 -0.0000006885021
vn 0.38268369436264 0.92387944459915 -0.00000052127541
vn 0.70710694789886 0.707106590271 -0.00000096319127
vn 0.70710718631744 0.70710635185242 -0.00000096319127
vn 0.38268372416496 0.92387938499451 0
vn 0 1 0
vn -0.96753823757172 0.25272470712662 0
vn -1 0 0
vn 0.9238795042038 0.38268345594406 0
vn 0.38268342614174 0.92387956380844 0
vn -0.38268342614174 0.92387956380844 0
vn -0.9238795042038 0.38268345594406 0
vn -0.9238795042038 -0.38268345594406 0
vn -0.38268342614174 -0.92387956380844 0
vn 0.38268342614174 -0.92387956380844 0
vn 0.9238795042038 -0.38268345594406 0
vn -0 -0 1
vn -0 0 1
vn -0 -0 1
vn 0 0 1
vn 0 0 1
vn 0 0 1
vn 0 -0 1
vn -0 0 1
vn -0 0 1
vn -0 0 1
vn 0 0 1
vn -0 0 1
vn -0 -0 1
vn -0 0 1
vn -0.96753823757172 -0.25272473692894 -0
vn 0.38268315792084 -0.92387962341309 0
vn 0.25272458791733 -0.96753823757172 0
vn 0.707106590271 -0.70710694789886 0
vn 0.86285620927811 0.50544941425323 -0.00000065475723
vn 0.38268360495567 0.92387944459915 -0.00000049572668
vn 0.70710682868958 0.70710670948029 -0.00000091598332
vn 0.70710706710815 0.70710647106171 -0.00000091598332
vn 0.38268369436264 0.92387944459915 0
vn -0.38268345594406 0.9238795042038 0
vn -0.96753823757172 0.25272473692894 -0
vn -1 0 -0
# 74 normals

vt 0 1 0
vt 0.125 1 0
vt 0.125 0 0
vt 0 0 0
vt 0.25 1 0
vt 0.25 0 0
vt 0.375 1 0
vt 0.375 0 0
vt 0.5 1 0
vt 0.5 0 0
vt 0.625 1 0
vt 0.625 0 0
vt 0.75 1 0
vt 0.75 0 0
vt 0.875 1 0
vt 0.875 0 0
vt 1 1 0
vt 1 0 0
vt 0.14644661545753 0.14644658565521 0
vt 0.16951338946819 0.2021347284317 0
vt 0.17907011508942 0.17906272411346 0
vt 0.82091945409775 0.17906272411346 0
vt 0.83048141002655 0.20214736461639 0
vt 0.85355341434479 0.14644658565521 0
vt 0.49999478459358 0.04613137245178 0
vt 0.5 1 0
vt 0.52307939529419 0.94428139925003 0
vt 0.49999475479126 0.95384335517883 0
vt 0.47692278027534 0.94428664445877 0
vt 0.82091945409775 0.82091200351715 0
vt 0.85355341434479 0.85355341434479 0
vt 0.95385074615479 0.49998736381531 0
vt 1 0.5 0
vt 0.04613877087831 0.49998736381531 0
vt 0 0.5 0
vt 0.17907011508942 0.82091200351715 0
vt 0.14644661545753 0.85355341434479 0
vt 0.94429928064346 0.47692799568176 0
vt 0.20212948322296 0.1695111989975 0
vt 0.125 0.4084712266922 0
vt 0.125 0.63696050643921 0
vt 0 0.63696050643921 0
vt 0 0.4084712266922 0
vt 0.25 0.63696050643921 0
vt 0.24100854992867 0.63696050643921 0
vt 0.25 0.4084712266922 0
vt 0.375 0.4084712266922 0
vt 0.375 0.63696050643921 0
vt 0.25898653268814 0.63696050643921 0
vt 0.25898653268814 0.4084712266922 0
vt 0.5 0.4084712266922 0
vt 0.5 0.63696050643921 0
vt 0.625 0.63696050643921 0
vt 0.61601346731186 0.63696050643921 0
vt 0.61601346731186 0.4084712266922 0
vt 0.625 0.4084712266922 0
vt 0.50898653268814 0.4084712266922 0
vt 0.63398158550262 0.4084712266922 0
vt 0.75 0.4084712266922 0
vt 0.75 0.63696050643921 0
vt 0.875 0.4084712266922 0
vt 0.875 0.63696050643921 0
vt 0.88399147987366 0.63696050643921 0
vt 0.99101841449738 0.4084712266922 0
vt 1 0.63696050643921 0
vt 1 0.4084712266922 0
# 66 texture coordinates

o WarningRingA.2
usemtl default
f 6/4/1 14/3/2 11/2/2 1/1/1
f 14/3/2 15/6/3 12/5/3 11/2/2
f 15/6/3 16/8/4 13/7/4 12/5/3
f 16/8/4 7/10/5 2/9/5 13/7/4
f 7/10/5 8/12/6 3/11/6 2/9/5
f 8/12/6 9/14/7 4/13/7 3/11/6
f 9/14/7 10/16/8 5/15/8 4/13/7
f 10/16/8 6/18/1 1/17/1 5/15/8
f 27/21/11 20/20/10 3/19/9
f 5/24/15 19/23/14 29/22/13
f 25/25/16 27/21/11 3/19/9 4/10/16
f 25/25/16 4/10/16 5/24/15 29/22/13
f 31/28/19 17/27/18 12/26/17
f 31/28/19 12/26/17 18/29/20
f 11/31/21 12/9/17 17/27/18 28/30/21
f 1/33/22 26/32/22 19/23/14 5/24/15
f 28/30/21 26/32/22 1/33/22 11/31/21
f 2/35/23 3/19/9 20/20/10 30/34/23
f 13/37/24 35/36/24 18/29/20 12/9/17
f 13/37/24 2/35/23 30/34/23 35/36/24
f 6/33/25 23/38/25 32/32/25
f 34/28/25 24/29/25 15/9/25
f 14/31/25 6/33/25 32/32/25 33/30/25
f 33/30/25 34/28/25 15/9/25 14/31/25
f 36/21/25 22/39/25 8/19/25
f 36/21/25 8/19/25 21/20/25
f 37/25/25 9/10/25 8/19/25 22/39/25
f 38/22/25 23/38/25 6/33/25 10/24/25
f 38/22/25 10/24/25 9/10/25 37/25/25
f 7/35/25 40/34/25 21/20/25 8/19/25
f 39/36/25 16/37/25 15/9/25 24/29/25
f 39/36/25 40/34/25 7/35/25 16/37/25
f 32/43/28 26/42/27 42/41/26 44/40/26
f 45/46/30 48/45/29 41/44/7
f 42/41/26 48/45/29 45/46/30 44/40/26
f 24/50/32 18/49/32 35/48/31 39/47/31
f 41/44/7 18/49/32 24/50/32 45/46/30
f 39/47/31 35/48/31 47/52/1 40/51/33
f 21/55/36 40/51/33 20/54/35 27/53/34
f 40/51/33 47/52/1 20/54/35
f 27/53/34 46/56/37 21/55/36
f 27/53/34 22/58/38 46/56/37
f 27/53/34 43/60/3 37/59/3 22/58/38
f 37/59/3 43/60/3 29/62/4 38/61/39
f 19/63/40 38/61/39 29/62/4
f 19/63/40 26/65/27 23/64/40 38/61/39
f 23/64/40 26/65/27 32/66/28
f 54/4/41 62/3/42 59/2/42 49/1/41
f 62/3/42 63/6/43 60/5/43 59/2/42
f 63/6/43 64/8/44 61/7/44 60/5/43
f 64/8/44 55/10/45 50/9/45 61/7/44
f 55/10/45 56/12/46 51/11/46 50/9/45
f 56/12/46 57/14/47 52/13/47 51/11/46
f 57/14/47 58/16/48 53/15/48 52/13/47
f 58/16/48 54/18/41 49/17/41 53/15/48
f 75/21/51 68/20/50 51/19/49
f 53/24/54 67/23/53 77/22/52
f 73/25/55 75/21/51 51/19/49 52/10/55
f 73/25/55 52/10/55 53/24/54 77/22/52
f 79/28/19 65/27/57 60/26/56
f 79/28/19 60/26/56 66/29/58
f 59/31/59 60/9/56 65/27/57 76/30/59
f 49/33/60 74/32/60 67/23/53 53/24/54
f 76/30/59 74/32/60 49/33/60 59/31/59
f 50/35/61 51/19/49 68/20/50 78/34/61
f 61/37/62 83/36/62 66/29/58 60/9/56
f 61/37/62 50/35/61 78/34/61 83/36/62
f 54/33/25 71/38/25 80/32/25
f 82/28/25 72/29/25 63/9/25
f 62/31/25 54/33/25 80/32/25 81/30/25
f 81/30/25 82/28/25 63/9/25 62/31/25
f 84/21/25 70/39/25 56/19/25
f 84/21/25 56/19/25 69/20/25
f 85/25/25 57/10/25 56/19/25 70/39/25
f 86/22/25 71/38/25 54/33/25 58/24/25
f 86/22/25 58/24/25 57/10/25 85/25/25
f 55/35/25 88/34/25 69/20/25 56/19/25
f 87/36/25 64/37/25 63/9/25 72/29/25
f 87/36/25 88/34/25 55/35/25 64/37/25
f 80/43/45 74/42/63 90/41/6 92/40/6
f 93/46/65 96/45/29 89/44/64
f 90/41/6 96/45/29 93/46/65 92/40/6
f 72/50/66 66/49/66 83/48/8 87/47/8
f 89/44/64 66/49/66 72/50/66 93/46/65
f 87/47/8 83/48/8 95/52/41 88/51/67
f 69/55/70 88/51/67 68/54/69 75/53/68
f 88/51/67 95/52/41 68/54/69
f 75/53/68 94/56/71 69/55/70
f 75/53/68 70/58/38 94/56/71
f 75/53/68 91/60/72 85/59/72 70/58/38
f 85/59/72 91/60/72 77/62/44 86/61/73
f 67/63/74 86/61/73 77/62/44
f 67/63/74 74/65/63 71/64/74 86/61/73
f 71/64/74 74/65/63 80/66/45

